<svg width="40" height="40" viewBox="0 0 40 40" fill="none" xmlns="http://www.w3.org/2000/svg">
<rect x="0.5" y="0.5" width="39" height="39" rx="19.5" stroke="#CFCFCF" stroke-opacity="0.5"/>
<path d="M20.0002 32C19.8013 32 19.6105 31.921 19.4699 31.7803C19.3292 31.6397 19.2502 31.4489 19.2502 31.25V29.3105L18.2812 30.281C18.1404 30.4216 17.9495 30.5006 17.7504 30.5004C17.5514 30.5003 17.3606 30.4211 17.22 30.2803C17.0793 30.1394 17.0004 29.9485 17.0006 29.7495C17.0007 29.5504 17.0799 29.3596 17.2207 29.219L19.2502 27.1895V21.299L14.1502 24.2435L13.4062 27.0185C13.3545 27.2106 13.2286 27.3744 13.0561 27.4737C12.8837 27.573 12.6789 27.5997 12.4867 27.548C12.2946 27.4963 12.1308 27.3704 12.0315 27.1979C11.9322 27.0255 11.9055 26.8206 11.9572 26.6285L12.3127 25.3055L10.6327 26.2745C10.4606 26.3724 10.2567 26.3982 10.0655 26.3463C9.8744 26.2944 9.71155 26.169 9.61252 25.9975C9.51349 25.826 9.48633 25.6223 9.53695 25.4308C9.58757 25.2393 9.71187 25.0757 9.88273 24.9755L11.5627 24.0065L10.2367 23.651C10.1416 23.6254 10.0524 23.5813 9.97432 23.5212C9.89622 23.4612 9.83071 23.3863 9.78154 23.3009C9.73237 23.2155 9.7005 23.1213 9.68775 23.0236C9.675 22.9259 9.68162 22.8266 9.70723 22.7315C9.73283 22.6364 9.77693 22.5472 9.837 22.4691C9.89707 22.391 9.97193 22.3255 10.0573 22.2763C10.1427 22.2271 10.2369 22.1953 10.3346 22.1825C10.4323 22.1698 10.5316 22.1764 10.6267 22.202L13.3987 22.9445L18.5002 20L13.4002 17.0555L10.6252 17.798C10.4343 17.8456 10.2324 17.8162 10.0629 17.7163C9.89344 17.6164 9.77002 17.4539 9.71925 17.2638C9.66848 17.0737 9.69444 16.8713 9.79152 16.7002C9.8886 16.5291 10.049 16.4029 10.2382 16.349L11.5627 15.9935L9.88273 15.0245C9.79674 14.9756 9.72128 14.9102 9.66068 14.832C9.60007 14.7539 9.55553 14.6645 9.52962 14.569C9.5037 14.4736 9.49693 14.3739 9.50967 14.2758C9.52242 14.1778 9.55445 14.0832 9.6039 13.9975C9.65336 13.9118 9.71927 13.8368 9.79784 13.7767C9.87641 13.7167 9.96609 13.6727 10.0617 13.6474C10.1573 13.6221 10.257 13.616 10.355 13.6294C10.453 13.6428 10.5474 13.6755 10.6327 13.7255L12.3127 14.6945L11.9572 13.37C11.9299 13.2743 11.922 13.1741 11.9338 13.0752C11.9456 12.9764 11.977 12.8809 12.0262 12.7943C12.0753 12.7077 12.1411 12.6318 12.2199 12.5709C12.2987 12.51 12.3888 12.4655 12.485 12.4398C12.5811 12.4141 12.6815 12.4078 12.7801 12.4213C12.8787 12.4348 12.9737 12.4678 13.0594 12.5183C13.1452 12.5689 13.22 12.636 13.2796 12.7158C13.3391 12.7956 13.3822 12.8864 13.4062 12.983L14.1487 15.7565L19.2502 18.701V12.8105L17.2207 10.781C17.151 10.7114 17.0957 10.6287 17.0579 10.5377C17.0201 10.4466 17.0006 10.3491 17.0006 10.2505C17.0005 10.152 17.0198 10.0544 17.0575 9.96332C17.0951 9.87225 17.1503 9.78948 17.22 9.71975C17.2896 9.65002 17.3723 9.59468 17.4633 9.55691C17.5543 9.51913 17.6519 9.49965 17.7504 9.49958C17.849 9.49951 17.9466 9.51885 18.0377 9.5565C18.1287 9.59415 18.2115 9.64937 18.2812 9.719L19.2502 10.6895V8.75C19.2502 8.55109 19.3292 8.36032 19.4699 8.21967C19.6105 8.07902 19.8013 8 20.0002 8C20.1991 8 20.3899 8.07902 20.5306 8.21967C20.6712 8.36032 20.7502 8.55109 20.7502 8.75V10.6895L21.7207 9.719C21.8616 9.57837 22.0525 9.49944 22.2515 9.49958C22.4505 9.49972 22.6413 9.57892 22.782 9.71975C22.9226 9.86058 23.0015 10.0515 23.0014 10.2505C23.0013 10.4496 22.9221 10.6404 22.7812 10.781L20.7502 12.8105V18.701L25.8502 15.7565L26.5942 12.9815C26.6459 12.7894 26.7719 12.6256 26.9443 12.5263C27.1168 12.427 27.3216 12.4003 27.5137 12.452C27.7059 12.5037 27.8696 12.6296 27.9689 12.8021C28.0682 12.9745 28.0949 13.1794 28.0432 13.3715L27.6892 14.6945L29.3692 13.7255C29.5414 13.6276 29.7453 13.6018 29.9364 13.6537C30.1276 13.7056 30.2904 13.831 30.3894 14.0025C30.4885 14.174 30.5156 14.3777 30.465 14.5692C30.4144 14.7607 30.2901 14.9243 30.1192 15.0245L28.4392 15.9935L29.7637 16.349C29.9559 16.4007 30.1196 16.5266 30.2189 16.6991C30.3182 16.8715 30.3449 17.0764 30.2932 17.2685C30.2415 17.4606 30.1156 17.6244 29.9431 17.7237C29.7707 17.823 29.5659 17.8497 29.3737 17.798L26.6017 17.0555L21.5002 20L26.6002 22.9445L29.3737 22.202C29.5659 22.1505 29.7706 22.1774 29.9429 22.2768C30.1152 22.3763 30.241 22.5401 30.2925 22.7323C30.344 22.9244 30.3171 23.1291 30.2176 23.3014C30.1182 23.4737 29.9544 23.5995 29.7622 23.651L28.4377 24.0065L30.1177 24.9755C30.2886 25.0757 30.4129 25.2393 30.4635 25.4308C30.5141 25.6223 30.487 25.826 30.3879 25.9975C30.2889 26.169 30.1261 26.2944 29.9349 26.3463C29.7438 26.3982 29.5399 26.3724 29.3677 26.2745L27.6877 25.3055L28.0417 26.63C28.069 26.7257 28.077 26.8259 28.0651 26.9248C28.0533 27.0236 28.0219 27.1191 27.9728 27.2057C27.9237 27.2923 27.8578 27.3682 27.779 27.4291C27.7003 27.49 27.6102 27.5345 27.514 27.5602C27.4178 27.5859 27.3175 27.5922 27.2189 27.5787C27.1202 27.5652 27.0253 27.5322 26.9395 27.4817C26.8538 27.4311 26.7789 27.364 26.7194 27.2842C26.6599 27.2044 26.6168 27.1136 26.5927 27.017L25.8502 24.2435L20.7502 21.299V27.1895L22.7797 29.219C22.9206 29.3596 22.9998 29.5504 22.9999 29.7495C23 29.9485 22.9211 30.1394 22.7805 30.2803C22.6398 30.4211 22.449 30.5003 22.25 30.5004C22.051 30.5006 21.8601 30.4216 21.7192 30.281L20.7487 29.3105V31.25C20.7487 31.4489 20.6697 31.6397 20.5291 31.7803C20.3884 31.921 20.1976 32 19.9987 32H20.0002Z" fill="#858585"/>
</svg>
