<svg width="40" height="40" viewBox="0 0 40 40" fill="none" xmlns="http://www.w3.org/2000/svg">
<rect x="0.5" y="0.5" width="39" height="39" rx="19.5" stroke="#CFCFCF" stroke-opacity="0.5"/>
<g clip-path="url(#clip0_1763_5336)">
<path d="M26.75 11C25.7554 11 24.8016 11.3951 24.0984 12.0984C23.3951 12.8016 23 13.7554 23 14.75C23 14.9489 22.921 15.1397 22.7803 15.2803C22.6397 15.421 22.4489 15.5 22.25 15.5C22.0511 15.5 21.8603 15.421 21.7197 15.2803C21.579 15.1397 21.5 14.9489 21.5 14.75C21.5 13.7117 21.8079 12.6966 22.3848 11.8333C22.9617 10.9699 23.7816 10.297 24.7409 9.89963C25.7002 9.50227 26.7558 9.39831 27.7742 9.60088C28.7926 9.80345 29.7281 10.3035 30.4623 11.0377C31.1965 11.7719 31.6966 12.7074 31.8991 13.7258C32.1017 14.7442 31.9977 15.7998 31.6004 16.7591C31.203 17.7184 30.5301 18.5383 29.6667 19.1152C28.8034 19.6921 27.7884 20 26.75 20H8.75C8.55109 20 8.36032 19.921 8.21967 19.7803C8.07902 19.6397 8 19.4489 8 19.25C8 19.0511 8.07902 18.8603 8.21967 18.7197C8.36032 18.579 8.55109 18.5 8.75 18.5H26.75C27.7446 18.5 28.6984 18.1049 29.4016 17.4017C30.1049 16.6984 30.5 15.7446 30.5 14.75C30.5 13.7554 30.1049 12.8016 29.4016 12.0984C28.6984 11.3951 27.7446 11 26.75 11ZM16.25 12.5C15.8522 12.5 15.4706 12.658 15.1893 12.9393C14.908 13.2206 14.75 13.6022 14.75 14C14.75 14.1989 14.671 14.3897 14.5303 14.5303C14.3897 14.671 14.1989 14.75 14 14.75C13.8011 14.75 13.6103 14.671 13.4697 14.5303C13.329 14.3897 13.25 14.1989 13.25 14C13.25 13.4067 13.4259 12.8266 13.7556 12.3333C14.0852 11.8399 14.5538 11.4554 15.1019 11.2284C15.6501 11.0013 16.2533 10.9419 16.8353 11.0576C17.4172 11.1734 17.9518 11.4591 18.3713 11.8787C18.7909 12.2982 19.0766 12.8328 19.1924 13.4147C19.3081 13.9967 19.2487 14.5999 19.0216 15.1481C18.7946 15.6962 18.4101 16.1648 17.9167 16.4944C17.4234 16.8241 16.8433 17 16.25 17H8.75C8.55109 17 8.36032 16.921 8.21967 16.7803C8.07902 16.6397 8 16.4489 8 16.25C8 16.0511 8.07902 15.8603 8.21967 15.7197C8.36032 15.579 8.55109 15.5 8.75 15.5H16.25C16.6478 15.5 17.0294 15.342 17.3107 15.0607C17.592 14.7794 17.75 14.3978 17.75 14C17.75 13.6022 17.592 13.2206 17.3107 12.9393C17.0294 12.658 16.6478 12.5 16.25 12.5ZM8 22.25C8 22.0511 8.07902 21.8603 8.21967 21.7197C8.36032 21.579 8.55109 21.5 8.75 21.5H23.813C24.703 21.5 25.573 21.7639 26.3131 22.2584C27.0531 22.7529 27.6299 23.4557 27.9705 24.2779C28.3111 25.1002 28.4002 26.005 28.2265 26.8779C28.0529 27.7508 27.6243 28.5526 26.995 29.182C26.3656 29.8113 25.5638 30.2399 24.6909 30.4135C23.818 30.5872 22.9132 30.4981 22.0909 30.1575C21.2687 29.8169 20.5659 29.2401 20.0714 28.5001C19.5769 27.76 19.313 26.89 19.313 26C19.313 25.8011 19.392 25.6103 19.5327 25.4697C19.6733 25.329 19.8641 25.25 20.063 25.25C20.2619 25.25 20.4527 25.329 20.5933 25.4697C20.734 25.6103 20.813 25.8011 20.813 26C20.813 26.5933 20.9889 27.1734 21.3186 27.6667C21.6482 28.1601 22.1168 28.5446 22.6649 28.7716C23.2131 28.9987 23.8163 29.0581 24.3983 28.9424C24.9802 28.8266 25.5148 28.5409 25.9343 28.1213C26.3539 27.7018 26.6396 27.1672 26.7554 26.5853C26.8711 26.0033 26.8117 25.4001 26.5846 24.852C26.3576 24.3038 25.9731 23.8352 25.4797 23.5056C24.9864 23.176 24.4063 23 23.813 23H8.75C8.55109 23 8.36032 22.921 8.21967 22.7803C8.07902 22.6397 8 22.4489 8 22.25Z" fill="#858585"/>
</g>
<defs>
<clipPath id="clip0_1763_5336">
<rect width="24" height="24" fill="white" transform="translate(8 8)"/>
</clipPath>
</defs>
</svg>
