<svg width="40" height="40" viewBox="0 0 40 40" fill="none" xmlns="http://www.w3.org/2000/svg">
<rect x="0.5" y="0.5" width="39" height="39" rx="19.5" stroke="#CFCFCF" stroke-opacity="0.5"/>
<path d="M20 17.0039C20.5933 17.0039 21.1734 17.1799 21.6667 17.5095C22.1601 17.8391 22.5446 18.3077 22.7716 18.8559C22.9987 19.404 23.0581 20.0072 22.9424 20.5892C22.8266 21.1711 22.5409 21.7057 22.1213 22.1252C21.7018 22.5448 21.1672 22.8305 20.5853 22.9463C20.0033 23.062 19.4001 23.0026 18.8519 22.7755C18.3038 22.5485 17.8352 22.164 17.5056 21.6706C17.1759 21.1773 17 20.5972 17 20.0039C17.001 19.2086 17.3174 18.4461 17.8798 17.8837C18.4422 17.3213 19.2047 17.0049 20 17.0039ZM20 15.5039C19.11 15.5039 18.24 15.7678 17.4999 16.2623C16.7599 16.7568 16.1831 17.4596 15.8425 18.2818C15.5019 19.1041 15.4128 20.0089 15.5865 20.8818C15.7601 21.7547 16.1887 22.5566 16.818 23.1859C17.4474 23.8152 18.2492 24.2438 19.1221 24.4174C19.995 24.5911 20.8998 24.502 21.7221 24.1614C22.5443 23.8208 23.2471 23.244 23.7416 22.504C24.2361 21.764 24.5 20.8939 24.5 20.0039C24.5 18.8104 24.0259 17.6658 23.182 16.8219C22.3381 15.978 21.1935 15.5039 20 15.5039ZM12.0455 13.1099L13.1075 12.0494L15.7362 14.6789L14.675 15.7394L12.0455 13.1099ZM9.5 19.2539H13.25V20.7539H9.5V19.2539ZM12.0455 26.8987L14.675 24.2692L15.7355 25.3297L13.1068 27.9592L12.0455 26.8987ZM19.25 26.7539H20.75V30.5039H19.25V26.7539ZM24.2653 25.3289L25.3258 24.2684L27.9552 26.8979L26.8948 27.9584L24.2653 25.3289ZM26.75 19.2539H30.5V20.7539H26.75V19.2539ZM24.2653 14.6782L26.8948 12.0487L27.9552 13.1092L25.3258 15.7387L24.2653 14.6782ZM19.25 9.50391H20.75V13.2539H19.25V9.50391Z" fill="#858585"/>
</svg>
